<?xml version="1.0" encoding="utf-8"?>
<!-- Generator: Adobe Illustrator 25.2.3, SVG Export Plug-In . SVG Version: 6.00 Build 0)  -->
<svg version="1.1" id="Layer_1" xmlns="http://www.w3.org/2000/svg" xmlns:xlink="http://www.w3.org/1999/xlink" x="0px" y="0px"
	 viewBox="0 0 50 50" style="enable-background:new 0 0 50 50;" xml:space="preserve">
<style type="text/css">
	.st0{fill:#783FED;}
</style>
<g>
	<path class="st0" d="M25,0.6C11.5,0.6,0.6,11.5,0.6,25c0,13.5,10.9,24.4,24.4,24.4S49.4,38.5,49.4,25C49.4,11.5,38.5,0.6,25,0.6z
		 M18,41c-0.2,0.2-0.5,0.3-0.8,0.3c-0.3,0-0.6-0.1-0.8-0.3c-0.4-0.4-0.4-1.1,0-1.6l14.8-14.8l-14-14c-0.4-0.4-0.4-1.1,0-1.6
		c0.4-0.4,1.1-0.4,1.6,0l15.5,15.5L18,41z"/>
</g>
</svg>
