<svg id="Layer_1" data-name="Layer 1" xmlns="http://www.w3.org/2000/svg" xmlns:xlink="http://www.w3.org/1999/xlink" width="86px" height="42px"  viewBox="0 0 103.86 57.67">
  <defs>
    <style>
.cls-1{fill:#6d6e70;}.cls-2{fill:#007cc3;fill-rule:evenodd;}
</style>
  </defs>
  <title>infosys-bpm-logo</title>
  <path class="cls-1" d="M-.27,41.28a25.43,25.43,0,0,1,4.35-.34c2.21,0,3.57.27,4.68,1.05a3.43,3.43,0,0,1,1.7,3,3.8,3.8,0,0,1-2.72,3.55v0a4.11,4.11,0,0,1,3.3,4,4.24,4.24,0,0,1-1.57,3.37c-1.17,1-3.09,1.53-6.07,1.53a30.85,30.85,0,0,1-3.67-.21Zm3,6.46H4.22c2.07,0,3.23-1,3.23-2.36s-1.16-2.23-3.06-2.23a8.43,8.43,0,0,0-1.7.12Zm0,7.52a12.69,12.69,0,0,0,1.58.08c1.92,0,3.62-.73,3.62-2.75s-1.65-2.67-3.72-2.67H2.69Z" transform="translate(0.27 0.08)"/>
  <path class="cls-1" d="M13.25,41.28a26.35,26.35,0,0,1,4.57-.34,7.39,7.39,0,0,1,4.83,1.34,4.61,4.61,0,0,1,1.6,3.61,5,5,0,0,1-1.41,3.72,7.22,7.22,0,0,1-5.17,1.74,8.83,8.83,0,0,1-1.46-.09v6.16h-3Zm3,7.62a5.93,5.93,0,0,0,1.46.12c2.23,0,3.59-1.09,3.59-3S20,43.22,17.94,43.22a8.44,8.44,0,0,0-1.73.15Z" transform="translate(0.27 0.08)"/>
  <path class="cls-1" d="M40.17,50.75c-.09-2.11-.22-4.66-.19-6.87h-.07c-.54,2-1.22,4.2-1.95,6.26l-2.37,7.09H33.28l-2.19-7c-.63-2.09-1.21-4.32-1.65-6.36h0c-.08,2.13-.17,4.73-.3,7l-.36,6.57H26L27,41.06H31l2.14,6.58c.58,1.92,1.09,3.86,1.5,5.68h.08c.43-1.77,1-3.79,1.62-5.7l2.26-6.56h3.89l.94,16.36H40.49Z" transform="translate(0.27 0.08)"/>
  <path class="cls-2" d="M100.46,6.19a3.14,3.14,0,1,0-3.13-3.13,3.13,3.13,0,0,0,3.13,3.13ZM97.79,3.06a2.67,2.67,0,1,1,2.67,2.66,2.68,2.68,0,0,1-2.67-2.66Zm1.48,1.57h.6V3.3h.71l.52,1.33h.67l-.62-1.43a.78.78,0,0,0,.58-.81c0-1-.72-1.07-1.35-1.07H99.27V4.63Zm.6-2.73h.67c.36,0,.56.14.56.44s-.23.42-.51.42h-.72V1.9ZM0,4.46V.72H3.67V31.54H0V4.46Zm37.7,15.86c.1,5.6,3.59,10.08,7.79,10S53,25.64,52.9,20,49.31,10,45.11,10s-7.54,4.68-7.45,10.28Zm30.7-6.78c.1.22-.13-.31-.13-.31l.13.31Zm2.53,23.19c.17-.29.41-.73.69-1.28l-.69,1.28Zm.22-25.12a3.12,3.12,0,0,0,.15.39l1.25,3.06-1.4-3.45ZM55.57,27c2.29,2.08,4.36,3.16,7,3.16s5.11-1.3,5.11-3.84c0-2.12-1.88-3.36-5.25-4.78-2.84-1.24-5-2.1-6.07-3.88A13.36,13.36,0,0,1,56.56,20c0,6.88-5,12.45-11.15,12.45S34.26,26.92,34.26,20A13,13,0,0,1,38.86,10H31.32V31.54H28V10H25V7.71h3C28.4,3.18,31.21.62,35.1.62a11.86,11.86,0,0,1,4.7.63V4.32c0,.23,0,.37,0,.37h-.12a6.59,6.59,0,0,0-5.2-1.95c-2.23,0-3.7,1.81-3.19,5H43.82a10.44,10.44,0,0,1,1.59-.12,11.14,11.14,0,0,1,10.1,7.17c0-.24,0-.48,0-.74,0-4.42,4.28-6.3,8.73-6.29h.5a22.35,22.35,0,0,1,5.16.85l1.24,3,1.4,3.45,3.77,9.2.45,1.47.49-1.47L82,12.45c.88-3.25,4.37-4.66,8.21-4.65a13.61,13.61,0,0,1,5,.82v3.57c-2.08-1.52-3.58-2.4-5.94-2.4-2.08,0-4.58.92-4.58,4,0,2.3,1.34,2.72,5.39,4.73,3.33,1.45,6.4,3,6.42,6.74,0,6.16-6.07,7.23-9,7.24a10.53,10.53,0,0,1-6.4-1.77V26.64l.21.18c2.41,2.24,4.53,3.4,7.27,3.4s5.1-1.3,5.1-3.84c0-2.12-1.88-3.36-5.24-4.78S83.1,19.29,82.24,17c-1.31,3.2-7.41,18-8.84,21.2H70.11l.78-1.45.69-1.28,0-.05c.82-1.62,2-4.16,3.09-6.59L68.36,13.54l-.36-.8a4,4,0,0,0-2.3-2.64,7.3,7.3,0,0,0-2.41-.38c-2.09,0-4.75.92-4.75,4,0,2.3,1.5,2.72,5.56,4.73,3.33,1.45,6.4,3,6.42,6.74,0,6.16-6.08,7.22-9,7.23A11.29,11.29,0,0,1,55.57,31V27Zm-45-19,0,2.7v.18h0a1,1,0,0,1,.16-.28C12.18,9.08,13.9,7.63,18,7.63c3.9,0,6.43,3.32,6.53,5.4V31.54H21.17v-17c0-2.6-2.29-4.48-5.08-4.48-2.33,0-5.32,2.09-5.41,4.21V31.54H7.33V7.94h3.26Z" transform="translate(0.27 0.08)"/>
</svg>
